<?xml version="1.0" encoding="utf-8"?>
<!-- Generator: Adobe Illustrator 24.1.1, SVG Export Plug-In . SVG Version: 6.00 Build 0)  -->
<svg version="1.1" id="Layer_1" xmlns="http://www.w3.org/2000/svg" xmlns:xlink="http://www.w3.org/1999/xlink" x="0px" y="0px"
	 viewBox="0 0 71.9 37" style="enable-background:new 0 0 71.9 37;" xml:space="preserve">
<path d="M15.2,20.7v16h-3.7l-7.1-8.5v8.5H0v-16h3.7l7.1,8.5v-8.5H15.2z M26.5,37c-1.6,0-3.2-0.3-4.6-1.1c-2.7-1.4-4.4-4.2-4.3-7.2
	c0-3,1.6-5.9,4.3-7.3c1.4-0.7,3-1.1,4.6-1.1c1.6,0,3.2,0.3,4.6,1.1c2.7,1.4,4.4,4.2,4.3,7.3c0,3-1.6,5.9-4.3,7.3
	C29.7,36.7,28.1,37,26.5,37z M26.5,33.2c0.8,0,1.5-0.2,2.2-0.6c0.7-0.4,1.2-0.9,1.6-1.6c0.4-0.7,0.6-1.6,0.6-2.4
	c0-0.8-0.2-1.7-0.6-2.4c-0.4-0.7-0.9-1.2-1.6-1.6c-1.4-0.8-3-0.8-4.4,0c-0.7,0.4-1.2,0.9-1.6,1.6c-0.4,0.7-0.6,1.6-0.6,2.4
	c0,0.8,0.2,1.7,0.6,2.4c0.4,0.7,0.9,1.2,1.6,1.6C25,33.1,25.7,33.3,26.5,33.2L26.5,33.2z M41,24.3H36v-3.6h14.3v3.6h-4.9v12.4H41
	V24.3z M64.9,33.2v3.5H52.1v-16h12.6v3.5h-8.1v2.7h7.1v3.4h-7.1v2.9H64.9z M69.3,36.9c-0.7,0-1.4-0.2-1.9-0.7
	c-0.5-0.5-0.8-1.2-0.8-1.9c0-0.7,0.2-1.4,0.7-1.9c1.1-0.9,2.7-0.9,3.7,0c0.5,0.5,0.8,1.2,0.7,1.9c0,0.7-0.2,1.4-0.7,1.9
	C70.7,36.6,70,36.9,69.3,36.9L69.3,36.9z"/>
<g>
	<path d="M12.4,0.8c1.2,0.5,2.1,1.3,2.8,2.3c0.7,1,1,2.2,1,3.5c0,1.4-0.3,2.5-1,3.5s-1.6,1.8-2.8,2.3c-1.2,0.5-2.6,0.8-4.2,0.8H5.1
		V18H0V0h8.2C9.8,0,11.3,0.3,12.4,0.8z M10.3,8.6c0.5-0.5,0.8-1.1,0.8-1.9c0-0.8-0.3-1.5-0.8-2C9.7,4.2,8.9,4,7.9,4H5.1v5.3h2.8
		C8.9,9.3,9.7,9,10.3,8.6z"/>
	<path d="M22,4h-5.5V0h16.1v4h-5.5V18H22V4z"/>
	<path d="M45.7,14.5h-7.6L36.7,18h-5.2l7.9-18h5l8,18h-5.3L45.7,14.5z M44.2,10.7L41.9,5l-2.3,5.7H44.2z"/>
	<path d="M60.7,11.4l-1.9,2V18h-5V0h5v7.5l7-7.5h5.6L64,8l7.7,10h-5.9L60.7,11.4z"/>
</g>
</svg>
